<?xml version="1.0" encoding="UTF-8" standalone="no"?>
<!DOCTYPE svg PUBLIC "-//W3C//DTD SVG 1.1//EN" "http://www.w3.org/Graphics/SVG/1.1/DTD/svg11.dtd">
<svg width="100%" height="100%" viewBox="0 0 628 565" version="1.1" xmlns="http://www.w3.org/2000/svg" xmlns:xlink="http://www.w3.org/1999/xlink" xml:space="preserve" xmlns:serif="http://www.serif.com/" style="fill-rule:evenodd;clip-rule:evenodd;stroke-linejoin:round;stroke-miterlimit:2;">
    <g transform="matrix(1,0,0,1,-119.846,-129.352)">
        <path d="M529.173,398.669C529.173,398.669 540.111,387.399 545.28,382.398C547.776,379.983 553.542,374.877 556.069,372.46C562.686,366.132 572.125,355.519 579.265,349.801C584.93,345.264 598.21,331.91 604.376,326.452C611.409,320.226 617.698,313.55 622.381,309.574C627.223,305.462 625.682,297.776 623.457,295.825C618.977,291.898 615.164,293.211 608.87,294.378C604.14,295.255 599.489,297.829 595.082,300.091C592.505,301.414 585.407,306.651 584.108,308.577C582.179,311.435 585.929,314.65 588.488,314.308C592.775,313.735 595.11,313.374 595.345,314.299C595.808,316.12 591.286,318.444 589.57,319.933C587.034,322.133 572.925,335.729 567.965,340.743C562.628,346.137 534.946,372.035 527.858,379.083C525.299,381.627 514.913,390.204 513.31,393.45C513.2,393.673 503.1,391.675 503.1,391.675C503.1,391.675 500.679,375.38 499.168,360.273C498.826,356.852 496.622,335.852 496.358,332.412C495.214,317.542 493.967,298.505 493.208,283.621C491.971,259.35 492.204,241.753 492.204,216.73C492.204,207.663 493.067,200.265 493.719,191.143C494.117,185.563 494.157,179.845 493.637,172.051C493.352,167.779 493.722,162.423 491.233,160.492C489.876,159.439 486.858,157.972 482.776,159.521C477.655,161.464 479.099,171.684 479.441,176.17C480.106,184.9 480.084,203.085 480.281,214.481C480.413,222.149 480.144,233.93 479.908,242.125C479.634,251.631 480.419,273.601 480.419,282.221C480.419,292.881 482.737,312.442 483.172,323.181C484.567,357.673 485.634,372.532 488.234,386.902C480.484,383.858 473.24,380.419 470.654,378.896C466.693,376.564 459.685,373.011 456.311,369.822C449.094,363.002 434.154,373.298 447.401,383.592C452.596,387.628 457.529,391.191 463.209,394.097C465.757,395.4 490.473,406.828 490.473,406.828L491.781,416.608C491.781,416.608 486.995,419.127 484.893,420.291C481.296,422.283 479.603,423.631 479.138,427.103C478.836,429.355 480.152,431.45 482.693,432.334C485.613,433.352 493.748,432.646 493.748,432.646C493.748,432.646 498.007,464.326 504.273,495.972C508.701,518.335 511.609,540.234 513.021,553.668C514.396,566.748 514.145,574.336 514.728,581.387C515.322,588.558 514.107,588.69 515.714,593.774C516.38,595.883 519.699,598.3 521.762,598.47C523.639,598.623 526.784,600.405 527.921,596.423C528.597,594.054 529.05,583.003 528.808,577.035C528.522,570.011 527.73,554.641 526.354,544.549C525.308,536.882 516.575,485.096 515.853,480.694C515.44,478.177 511.506,454.115 510.87,450.33C509.56,442.531 505.549,422.139 505.549,422.139L514.397,412.357C514.397,412.357 533.568,418.781 550.324,420.515C568.726,422.42 595.733,423.92 607.662,424.673C625.641,425.807 638.571,428.345 662.748,432.513C684.032,436.181 694.098,442.785 702.832,442.507C706.711,442.384 706.764,440.84 709.686,439.34C713.126,437.572 716.006,435.845 717.307,432.933C718.919,429.324 712.567,425.001 706.229,422.774C702.984,421.634 699.228,421.558 694.553,421.779C688.289,422.075 681.383,418.03 668.801,415.663C655.635,413.186 642.933,411.083 627.753,408.899C612.277,406.672 598.306,406.253 584.55,405.349C571.457,404.488 561.779,404.316 550.662,402.557C540.753,400.988 529.173,398.669 529.173,398.669Z"/>
    </g>
    <g transform="matrix(1,0,0,1,-119.846,-129.352)">
        <path d="M424.897,313.913C424.897,313.913 424.059,300.578 423.948,298.629C423.164,284.82 422.214,281.242 420.994,278.032C420.135,275.774 418.423,271.694 412.042,272.408C405.611,273.127 405.742,278.608 405.595,283.819C405.525,286.315 405.05,292.849 405.277,295.348C405.798,301.076 405.611,309.079 405.854,315.598C406.038,320.515 406.864,340.988 407.323,351.234C407.614,357.731 409.41,384.661 406.658,386.608C405.211,387.632 402.893,384.738 398.845,384.979C393.626,385.289 392.093,385.684 388.793,388.383C387.351,389.563 382.368,394.35 379.612,397.83C375.494,403.028 370.164,409.616 365.356,415.481C361.423,420.279 358.857,422.95 355.567,428.126C352.516,432.926 345.937,439.625 345.937,439.625C346.478,438.638 345.272,432.818 339.293,432.585C335.746,432.447 332.481,435.277 330.768,440.773C329.259,445.619 327.656,460.24 327.656,460.24C327.656,460.24 321.839,463.378 319.012,466.514C315.914,469.951 313.379,472.509 311.734,477.724C311.256,479.239 310.191,481.789 312.935,485.155C314.829,487.478 317.831,487.999 320.58,486.708C323.742,485.223 326.531,480.577 326.531,480.577L327.919,480.248C327.919,480.248 329.858,498.72 336.277,507.883C343.315,517.929 357.849,536.111 374.981,523.589C385.334,516.021 381.652,501.726 380.818,499.3C379.049,494.149 374.649,486.595 368.774,479.55C365.737,475.908 359.04,469.987 356.274,467.986C354.515,466.714 346.883,463.427 346.883,463.427C346.883,463.427 349.625,458.794 353.849,453.335C364.245,439.902 382.648,417.223 384.176,415.323C386.873,411.968 391.917,403.524 397.528,403.826C401.177,404.022 402.823,406.348 405.036,409.016C409.623,414.546 414.834,453.019 415.65,464.885C416.355,475.151 422.992,477.203 427.745,476.655C433.642,475.975 436.054,468.325 435.568,463.553C434.694,454.976 432.334,443.806 431.562,438.926C429.962,428.823 428.458,422.946 427.181,413.721C426.582,409.395 421.341,353.018 420.394,341.646C420.021,337.175 419.694,332.683 419.288,328.214C419.05,325.604 418.966,322.628 419.604,320.076C420.052,318.282 420.536,316.073 422.082,314.914C422.266,314.775 424.897,313.913 424.897,313.913ZM342.078,478.374C342.209,485.205 343.435,490.017 345.066,494.012C346.482,497.481 350.519,504.76 354.512,507.708C357.383,509.825 362.102,512.091 364.784,509.986C366.682,508.496 365.886,503.802 363.916,499.405C362.481,496.203 358.653,489.243 354.948,485.4C352.047,482.393 348.686,479.906 342.078,478.374Z"/>
    </g>
    <g transform="matrix(1,0,0,1,-119.846,-129.352)">
        <path d="M250.318,253.423C250.46,251.357 248.618,248.574 244.881,248.875C240.545,249.225 237.788,249.912 234.095,253.521C232.47,255.109 230.371,259.599 228.682,263.173C226.116,268.599 223.749,275.526 221.65,283.509C220.652,287.307 219.001,291.926 217.794,297.37C216.547,302.994 215.455,307.384 213.001,315.082C211.976,318.297 210.388,325.942 209.303,334.519C207.785,346.517 207.968,356.143 207.336,366.567C207.053,371.237 207.242,409.974 208.383,429.661C209.682,452.09 213.827,470.033 214.885,474.05C215.99,478.245 217.598,482.612 220.319,487.63C222.145,490.998 224.202,493.862 226.929,496.337C228.434,497.704 232.255,500.375 233.451,501.32C237.019,504.138 242.475,506.071 249.315,505.116C253.331,504.555 259.689,501.437 262.849,499.609C266.666,497.4 269.322,493.075 270.5,491.568C273.003,488.367 274.046,485.269 274.699,482.801C275.105,481.266 276.527,476.703 276.714,476.931C277.716,478.156 289.834,501.937 290.637,503.973C292.818,509.505 296.926,517.418 299.112,522.974C302.283,531.036 301.754,533.741 301.382,538.753C301.094,542.631 297.876,550.919 295.487,553.672C293.795,555.621 287.54,562.699 285.393,564.636C281.29,568.338 269.606,576.293 262.832,580.078C256.354,583.697 249.814,586.568 244.353,588.117C238.955,589.648 232.19,588.216 228.656,587.288C224.731,586.257 220.815,582.935 217.622,581.665C214.768,580.531 211.67,579.165 209.781,581.228C207.705,583.496 208.895,585.866 210.814,589.43C212.425,592.421 214.651,595.158 220.738,598.349C226.043,601.13 236.354,604.067 244.685,603.205C251.95,602.455 261.469,598.906 269.632,595.474C278.854,591.597 287.35,584.229 295.209,577.739C300.665,573.232 312.123,561.817 316.193,553.76C320.62,544.995 318.349,532.529 316.803,526.542C313.967,515.558 310.362,504.477 305.364,494.079C301.84,486.745 291.827,467.709 288.864,462.69C282.297,451.564 272.437,437.126 266.016,433.5C265.512,432.947 263.917,432.506 263.438,432.333C260.417,431.249 258.02,431.448 254.928,431.937C246.789,433.224 238.917,439.899 238.404,448.43C238.19,451.992 239.65,455.364 243.571,456.193C246.235,456.756 248.933,457.179 251.558,458.199C253.858,459.094 257.477,462.448 259.438,465.36C260.367,466.739 261.165,470.372 261.071,472.985C261.012,474.606 261.176,479.976 255.172,484.156C245.785,490.692 235.401,482.756 232.845,476.071C230.472,469.863 227.826,463.992 226.565,457.42C223.95,443.79 222.17,409.14 221.923,404.679C220.938,386.883 220.354,362.944 220.667,353.307C220.867,347.114 223.271,328.048 223.812,324.804C224.998,317.685 228.452,303.618 230.329,296.702C232.978,286.943 235.51,275.016 237.65,269.258C239.686,263.779 242.591,261.233 244.031,259.29C245.186,257.732 246.892,257.687 248.492,256.442C250.075,255.211 250.231,254.679 250.318,253.423Z"/>
    </g>
    <g transform="matrix(1,0,0,1,-119.846,-129.352)">
        <path d="M362.777,266.134C350.091,263.836 349.407,284.459 348.767,287.835C347.961,292.092 344.609,309.174 340.368,324.71C336.709,338.115 328.595,369.002 326.395,377.005C324.019,385.644 320.695,396.017 318.861,403.103C318.165,405.791 315.33,415.524 314.815,418.247C313.746,423.894 312.31,430.145 312.491,435.529C312.761,443.543 312.006,457.6 320.853,456.833C324.493,456.517 324.149,445.2 324.335,443.524C325.646,431.725 326.918,427.081 328.662,420.51C330.785,412.505 333.643,401.299 336.263,391.589C338.05,384.967 342.491,369.572 344.162,363.446C346.359,355.389 347.863,350.49 350.015,342.623C352.8,332.439 355.975,323.311 357.308,314.108C358.078,308.79 361.82,292.465 363.901,288.736C364.896,286.952 366.272,283.692 366.932,280.177C367.574,276.763 368.986,267.259 362.777,266.134Z"/>
    </g>
</svg>
